<svg xmlns="http://www.w3.org/2000/svg" viewBox="-1373.506 85 165.102 92">
  <defs>
    <style>
      .cls-1, .cls-2 {
        fill: #00ad84;
      }

      .cls-2 {
        font-size: 21px;
        font-family: Poppins-Medium, Poppins;
        font-weight: 500;
      }

      .cls-3 {
        font-family: Poppins;
        font-weight: 400;
      }
    </style>
  </defs>
  <g id="logo" transform="translate(-1225.348 98)">
    <g id="Group_13" data-name="Group 13" transform="translate(-54.006 -3.381)">
      <g id="Group_3" data-name="Group 3" transform="translate(0)">
        <circle id="Ellipse_1" data-name="Ellipse 1" class="cls-1" cx="3.019" cy="3.019" r="3.019" transform="translate(17.361 10.19)"/>
        <path id="Path_1" data-name="Path 1" class="cls-1" d="M67.931,14.718a2.986,2.986,0,0,0-2.83,2,20.533,20.533,0,0,0-8.189,2.717A61.376,61.376,0,0,0,60.76,9.774c.113,0,.264.038.377.038a3.019,3.019,0,1,0-3.019-3.019,3.078,3.078,0,0,0,1.548,2.642,58.765,58.765,0,0,1-3.283,8.453c.113-3.4-.226-5.812-1.019-7.322a2.682,2.682,0,0,0,.113-.793,3.021,3.021,0,1,0-.793,2.038c.491,1.434.793,4,.415,8.6a11.414,11.414,0,0,0-1.246.793l.3.491-.415-.377A69.664,69.664,0,0,0,37.286,54.987c-.113.641-.226,1.283-.34,1.887-.038-.415-.113-.868-.151-1.321V43.211a2.608,2.608,0,0,0,.943.151,3.031,3.031,0,1,0-1.7-.529v7.775C34.191,40.8,30.719,33.89,25.624,30.04a17.089,17.089,0,0,0-9.246-3.434,89.047,89.047,0,0,1-1.925-9.246c2.076-4.378,1.736-7.812.679-10.265a7.306,7.306,0,0,1,.755-.793,8.58,8.58,0,0,1,6-1.622,3.021,3.021,0,1,0,3.019-3.17,3.068,3.068,0,0,0-2.868,2.038A9.586,9.586,0,0,0,15.17,5.435a7.245,7.245,0,0,0-.566.529,10.72,10.72,0,0,0-.83-1.283,2.531,2.531,0,0,0,.566-1.662,3.019,3.019,0,1,0-3.019,3.019,2.924,2.924,0,0,0,1.7-.529,10.308,10.308,0,0,1,.868,1.434A8.64,8.64,0,0,0,12.831,13.1c0,.226.113,1.774.453,4.151,0,.038-.038.038-.038.076l.038.038a88.208,88.208,0,0,0,1.849,9.246,22.259,22.259,0,0,0-4.114.3A6.948,6.948,0,0,0,8.3,21.776a3.043,3.043,0,1,0-.227,1.245,6.175,6.175,0,0,1,1.887,4.038A39.373,39.373,0,0,0,5.095,28.38l.188.529a2.973,2.973,0,0,0-2.265-1.019,3.019,3.019,0,1,0,3.019,3.019,2.922,2.922,0,0,0-.415-1.51,27.067,27.067,0,0,1,9.85-1.7c.3,1.057.6,2.113.981,3.208,4,12.039,10.53,19.662,18.795,22.04.377,2.3.6,4.566.793,6.642v1.925h.113c.038.529.038,1.019.076,1.51a51.648,51.648,0,0,0,0,8.567l.566-.076.566.038c0-.038.226-3.51.038-8.453A69.031,69.031,0,0,1,54.533,22.154c.529-.34,1.019-.641,1.51-.905A27.593,27.593,0,0,1,59.1,22a2.959,2.959,0,0,0-.6,1.774,3.019,3.019,0,1,0,3.019-3.019,3.277,3.277,0,0,0-1.472.377,19.321,19.321,0,0,0-2.529-.755,20.258,20.258,0,0,1,7.4-2.491,3.021,3.021,0,1,0,3.019-3.17ZM13.963,12.983v-.038A8.368,8.368,0,0,1,14.454,8.3a10.737,10.737,0,0,1-.264,6.831C14.039,13.812,13.963,13.02,13.963,12.983Zm2.755,14.832a15.86,15.86,0,0,1,8.227,3.17c5.812,4.454,8.718,12.793,10.114,20.757C24.795,48.458,19.473,37.324,16.718,27.814Z" transform="translate(0.001)"/>
      </g>
      <path id="Path_2" data-name="Path 2" class="cls-1" d="M69.572,44.9A2.25,2.25,0,0,0,67.5,46.257a4.4,4.4,0,0,0-1.66.226,5.133,5.133,0,0,0-2.566,2.3,47.744,47.744,0,0,1,1.736-7.435,23.011,23.011,0,0,1,2.038-4.566,9.277,9.277,0,0,0,.679-1.4,2.267,2.267,0,1,0-.415.038c-.151.34-.34.679-.566,1.17A25.553,25.553,0,0,0,64.7,41.238a50.517,50.517,0,0,0-1.887,8.341h.076c-.038.113-.113.188-.151.3a16.317,16.317,0,0,0-1.887-6.68,2.229,2.229,0,0,0,.793-1.736,2.265,2.265,0,1,0-2.265,2.265,2.306,2.306,0,0,0,1.132-.3,16.452,16.452,0,0,1,1.849,6.83,77.4,77.4,0,0,0-9.473-7.208,1.993,1.993,0,0,0,.038-.491,2.265,2.265,0,1,0-2.265,2.265,2.312,2.312,0,0,0,2.113-1.434,75.915,75.915,0,0,1,9.586,7.359l.226,2.83V90.94h.377V53.579l-.188-2.793c.755-2.113,1.812-3.434,3.17-3.925a3.851,3.851,0,0,1,1.4-.226,2.548,2.548,0,0,0-.076.529,2.264,2.264,0,1,0,4.529,0A2.239,2.239,0,0,0,69.572,44.9Z" transform="translate(-30.133 -19.236)"/>
    </g>
    <text id="the_therapy_room" data-name="the
therapy
room" class="cls-2" transform="translate(-148.158 10)"><tspan x="0" y="0">the</tspan><tspan class="cls-3"><tspan x="0" y="29">therapy</tspan><tspan x="0" y="58">room</tspan></tspan></text>
  </g>
</svg>
