<svg xmlns="http://www.w3.org/2000/svg" xmlns:xlink="http://www.w3.org/1999/xlink"><symbol viewBox="0 0 12.41 25.51" id="facebook-white" xmlns="http://www.w3.org/2000/svg"><title>facebook-white</title><path d="M0 13.54V9.23h3.16V5.54a5.88 5.88 0 0 1 .37-2.09 5.33 5.33 0 0 1 1.1-1.76A5 5 0 0 1 6.57.45 7.88 7.88 0 0 1 9.34 0h1.53L12 .12h.37l-.1 4H9.53a1.78 1.78 0 0 0-1.44.46 2.34 2.34 0 0 0-.36 1.44v3.21h4.68l-.21 4.31H7.72v12H3.16v-12z" fill="#fff" style="isolation:isolate"/></symbol><symbol viewBox="0 0 29.23 25.51" id="google-white" xmlns="http://www.w3.org/2000/svg"><title>google-white</title><path d="M.56 18.62a4.92 4.92 0 0 1 1.94-2 9.85 9.85 0 0 1 3.3-1.24 22.79 22.79 0 0 1 2.86-.3 6.33 6.33 0 0 1-.72-1 2.18 2.18 0 0 1-.37-1.27 1.7 1.7 0 0 1 .15-.81l.22-.58a8.87 8.87 0 0 1-1 .07 5 5 0 0 1-4-1.69 5.12 5.12 0 0 1-1.43-3.6 6.11 6.11 0 0 1 2.08-4.41 7.24 7.24 0 0 1 3-1.51A14.62 14.62 0 0 1 9.4 0h6.68l-2.14 1.18H12a.28.28 0 0 1 .15.06l.15.12.18.19.16.18a5.27 5.27 0 0 1 .69.94 7.94 7.94 0 0 1 .57 1.28 6.62 6.62 0 0 1 .2 1.71 5.27 5.27 0 0 1-.73 2.88 8.06 8.06 0 0 1-.73 1l-.91.91a4.79 4.79 0 0 0-.52.71 1.6 1.6 0 0 0-.29 1 1.29 1.29 0 0 0 .3.87q.28.36.48.58l1 .94a12.09 12.09 0 0 1 1.85 1.92 4.8 4.8 0 0 1 .77 2.78 5.65 5.65 0 0 1-2.12 4.33 9.57 9.57 0 0 1-6.36 2A7.92 7.92 0 0 1 1.73 24 4.12 4.12 0 0 1 0 20.7a5 5 0 0 1 .56-2.08zm3.62 4.28a6.81 6.81 0 0 0 4.12 1.18A5.85 5.85 0 0 0 12 23a3.14 3.14 0 0 0 1.23-2.56 3.26 3.26 0 0 0-.83-2.23A21 21 0 0 0 9.69 16H8.58q-.4 0-1.07.06a15.28 15.28 0 0 0-2.12.48l-.72.3a4.23 4.23 0 0 0-.93.61 3.32 3.32 0 0 0-.79 1A3.09 3.09 0 0 0 2.6 20a3.45 3.45 0 0 0 1.58 2.9zm1-14.48A5.52 5.52 0 0 0 6.57 10a3 3 0 0 0 1.91.64 3.48 3.48 0 0 0 2.4-1 3.39 3.39 0 0 0 .59-1.33q.08-.76.08-1.14a8.42 8.42 0 0 0-1.07-4 4.43 4.43 0 0 0-1.32-1.54A3.48 3.48 0 0 0 7.25 1a3.2 3.2 0 0 0-2.38 1.14 4 4 0 0 0-.76 2.35v.14a7.84 7.84 0 0 0 1.1 3.8zm16.64-.79v5.67h1.77V7.63h5.61v-2h-5.58V0h-1.77v5.61h-5.62v2z" fill="#fff" style="isolation:isolate"/></symbol><symbol fill="#399" viewBox="0 0 24 24" id="ic_check_white_36px" xmlns="http://www.w3.org/2000/svg"><path d="M0 0h24v24H0z" fill="none"/><path d="M9 16.17L4.83 12l-1.42 1.41L9 19 21 7l-1.41-1.41z"/></symbol><symbol fill="#FFF" viewBox="0 0 24 24" id="ic_face_white_48px" xmlns="http://www.w3.org/2000/svg"><path d="M9 11.75a1.25 1.25 0 1 0 0 2.5 1.25 1.25 0 0 0 0-2.5zm6 0a1.25 1.25 0 1 0 0 2.5 1.25 1.25 0 0 0 0-2.5zM12 2C6.48 2 2 6.48 2 12s4.48 10 10 10 10-4.48 10-10S17.52 2 12 2zm0 18c-4.41 0-8-3.59-8-8 0-.29.02-.58.05-.86 2.36-1.05 4.23-2.98 5.21-5.37a9.974 9.974 0 0 0 10.41 3.97c.21.71.33 1.47.33 2.26 0 4.41-3.59 8-8 8z"/><path d="M0 0h24v24H0z" fill="none"/></symbol><symbol fill="#FFF" viewBox="0 0 24 24" id="ic_menu_white_48px" xmlns="http://www.w3.org/2000/svg"><path d="M0 0h24v24H0z" fill="none"/><path d="M3 18h18v-2H3v2zm0-5h18v-2H3v2zm0-7v2h18V6H3z"/></symbol><symbol viewBox="-1373.506 85 165.102 92" id="logo-abbey" xmlns="http://www.w3.org/2000/svg"><defs><style>.fcls-1,.fcls-2{fill:#474b50}.fcls-2{font-size:21px;font-family:Poppins-Medium,Poppins;font-weight:500}.fcls-3{font-family:Poppins;font-weight:400}</style></defs><g id="flogo" transform="translate(-1225.348 98)"><g id="fGroup_13" data-name="Group 13" transform="translate(-54.006 -3.381)"><g id="fGroup_3" data-name="Group 3"><circle id="fEllipse_1" data-name="Ellipse 1" class="fcls-1" cx="3.019" cy="3.019" r="3.019" transform="translate(17.361 10.19)"/><path id="fPath_1" data-name="Path 1" class="fcls-1" d="M67.931 14.718a2.986 2.986 0 0 0-2.83 2 20.533 20.533 0 0 0-8.189 2.717 61.376 61.376 0 0 0 3.848-9.661c.113 0 .264.038.377.038a3.019 3.019 0 1 0-3.019-3.019 3.078 3.078 0 0 0 1.548 2.642 58.765 58.765 0 0 1-3.283 8.453c.113-3.4-.226-5.812-1.019-7.322a2.682 2.682 0 0 0 .113-.793 3.021 3.021 0 1 0-.793 2.038c.491 1.434.793 4 .415 8.6a11.414 11.414 0 0 0-1.246.793l.3.491-.415-.377a69.664 69.664 0 0 0-16.452 33.669c-.113.641-.226 1.283-.34 1.887-.038-.415-.113-.868-.151-1.321V43.211a2.608 2.608 0 0 0 .943.151 3.031 3.031 0 1 0-1.7-.529v7.775C34.191 40.8 30.719 33.89 25.624 30.04a17.089 17.089 0 0 0-9.246-3.434 89.047 89.047 0 0 1-1.925-9.246c2.076-4.378 1.736-7.812.679-10.265a7.306 7.306 0 0 1 .755-.793 8.58 8.58 0 0 1 6-1.622 3.021 3.021 0 1 0 3.019-3.17 3.068 3.068 0 0 0-2.868 2.038 9.586 9.586 0 0 0-6.868 1.887 7.245 7.245 0 0 0-.566.529 10.72 10.72 0 0 0-.83-1.283 2.531 2.531 0 0 0 .566-1.662 3.019 3.019 0 1 0-3.019 3.019 2.924 2.924 0 0 0 1.7-.529 10.308 10.308 0 0 1 .868 1.434 8.64 8.64 0 0 0-1.058 6.157c0 .226.113 1.774.453 4.151 0 .038-.038.038-.038.076l.038.038a88.208 88.208 0 0 0 1.849 9.246 22.259 22.259 0 0 0-4.114.3A6.948 6.948 0 0 0 8.3 21.776a3.043 3.043 0 1 0-.227 1.245 6.175 6.175 0 0 1 1.887 4.038 39.373 39.373 0 0 0-4.865 1.321l.188.529a2.973 2.973 0 0 0-2.265-1.019 3.019 3.019 0 1 0 3.019 3.019 2.922 2.922 0 0 0-.415-1.51 27.067 27.067 0 0 1 9.85-1.7c.3 1.057.6 2.113.981 3.208 4 12.039 10.53 19.662 18.795 22.04.377 2.3.6 4.566.793 6.642v1.925h.113c.038.529.038 1.019.076 1.51a51.648 51.648 0 0 0 0 8.567l.566-.076.566.038c0-.038.226-3.51.038-8.453a69.031 69.031 0 0 1 17.133-40.946c.529-.34 1.019-.641 1.51-.905A27.593 27.593 0 0 1 59.1 22a2.959 2.959 0 0 0-.6 1.774 3.019 3.019 0 1 0 3.019-3.019 3.277 3.277 0 0 0-1.472.377 19.321 19.321 0 0 0-2.529-.755 20.258 20.258 0 0 1 7.4-2.491 3.021 3.021 0 1 0 3.019-3.17zm-53.968-1.735v-.038a8.368 8.368 0 0 1 .491-4.645 10.737 10.737 0 0 1-.264 6.831 80.532 80.532 0 0 1-.227-2.148zm2.755 14.832a15.86 15.86 0 0 1 8.227 3.17c5.812 4.454 8.718 12.793 10.114 20.757-10.264-3.284-15.586-14.418-18.341-23.928z" transform="translate(.001)"/></g><path id="fPath_2" data-name="Path 2" class="fcls-1" d="M69.572 44.9a2.25 2.25 0 0 0-2.072 1.357 4.4 4.4 0 0 0-1.66.226 5.133 5.133 0 0 0-2.566 2.3 47.744 47.744 0 0 1 1.736-7.435 23.011 23.011 0 0 1 2.038-4.566 9.277 9.277 0 0 0 .679-1.4 2.267 2.267 0 1 0-.415.038c-.151.34-.34.679-.566 1.17a25.553 25.553 0 0 0-2.046 4.648 50.517 50.517 0 0 0-1.887 8.341h.076c-.038.113-.113.188-.151.3a16.317 16.317 0 0 0-1.887-6.68 2.229 2.229 0 0 0 .793-1.736 2.265 2.265 0 1 0-2.265 2.265 2.306 2.306 0 0 0 1.132-.3 16.452 16.452 0 0 1 1.849 6.83 77.4 77.4 0 0 0-9.473-7.208 1.993 1.993 0 0 0 .038-.491 2.265 2.265 0 1 0-2.265 2.265 2.312 2.312 0 0 0 2.113-1.434 75.915 75.915 0 0 1 9.586 7.359l.226 2.83V90.94h.377V53.579l-.188-2.793c.755-2.113 1.812-3.434 3.17-3.925a3.851 3.851 0 0 1 1.4-.226 2.548 2.548 0 0 0-.076.529 2.264 2.264 0 1 0 4.529 0 2.239 2.239 0 0 0-2.225-2.264z" transform="translate(-30.133 -19.236)"/></g><text id="fthe_therapy_room" data-name="the therapy room" class="fcls-2" transform="translate(-148.158 10)"><tspan x="0" y="0">the</tspan><tspan class="fcls-3"><tspan x="0" y="29">therapy</tspan><tspan x="0" y="58">room</tspan></tspan></text></g></symbol><symbol viewBox="-1373.506 86 165.102 86" id="logo-cameo" xmlns="http://www.w3.org/2000/svg"><defs><style>.gcls-1{fill:#e0b7a5}.gcls-2{fill:#00ad84}.gcls-3{fill:#474b50;font-size:21px;font-family:OpenSans,Open Sans}.gcls-4{font-family:OpenSans-Semibold,Open Sans;font-weight:600}</style></defs><g id="glogo" transform="translate(-1225.348 98)"><g id="gGroup_13" data-name="Group 13" transform="translate(-54.006 -3.381)"><g id="gGroup_3" data-name="Group 3"><circle id="gEllipse_1" data-name="Ellipse 1" class="gcls-1" cx="3.019" cy="3.019" r="3.019" transform="translate(17.361 10.19)"/><path id="gPath_1" data-name="Path 1" class="gcls-1" d="M67.931 14.718a2.986 2.986 0 0 0-2.83 2 20.533 20.533 0 0 0-8.189 2.717 61.376 61.376 0 0 0 3.848-9.661c.113 0 .264.038.377.038a3.019 3.019 0 1 0-3.019-3.019 3.078 3.078 0 0 0 1.548 2.642 58.765 58.765 0 0 1-3.283 8.453c.113-3.4-.226-5.812-1.019-7.322a2.682 2.682 0 0 0 .113-.793 3.021 3.021 0 1 0-.793 2.038c.491 1.434.793 4 .415 8.6a11.414 11.414 0 0 0-1.246.793l.3.491-.415-.377a69.664 69.664 0 0 0-16.452 33.669c-.113.641-.226 1.283-.34 1.887-.038-.415-.113-.868-.151-1.321V43.211a2.608 2.608 0 0 0 .943.151 3.031 3.031 0 1 0-1.7-.529v7.775C34.191 40.8 30.719 33.89 25.624 30.04a17.089 17.089 0 0 0-9.246-3.434 89.047 89.047 0 0 1-1.925-9.246c2.076-4.378 1.736-7.812.679-10.265a7.306 7.306 0 0 1 .755-.793 8.58 8.58 0 0 1 6-1.622 3.021 3.021 0 1 0 3.019-3.17 3.068 3.068 0 0 0-2.868 2.038 9.586 9.586 0 0 0-6.868 1.887 7.245 7.245 0 0 0-.566.529 10.72 10.72 0 0 0-.83-1.283 2.531 2.531 0 0 0 .566-1.662 3.019 3.019 0 1 0-3.019 3.019 2.924 2.924 0 0 0 1.7-.529 10.308 10.308 0 0 1 .868 1.434 8.64 8.64 0 0 0-1.058 6.157c0 .226.113 1.774.453 4.151 0 .038-.038.038-.038.076l.038.038a88.208 88.208 0 0 0 1.849 9.246 22.259 22.259 0 0 0-4.114.3A6.948 6.948 0 0 0 8.3 21.776a3.043 3.043 0 1 0-.227 1.245 6.175 6.175 0 0 1 1.887 4.038 39.373 39.373 0 0 0-4.865 1.321l.188.529a2.973 2.973 0 0 0-2.265-1.019 3.019 3.019 0 1 0 3.019 3.019 2.922 2.922 0 0 0-.415-1.51 27.067 27.067 0 0 1 9.85-1.7c.3 1.057.6 2.113.981 3.208 4 12.039 10.53 19.662 18.795 22.04.377 2.3.6 4.566.793 6.642v1.925h.113c.038.529.038 1.019.076 1.51a51.648 51.648 0 0 0 0 8.567l.566-.076.566.038c0-.038.226-3.51.038-8.453a69.031 69.031 0 0 1 17.133-40.946c.529-.34 1.019-.641 1.51-.905A27.593 27.593 0 0 1 59.1 22a2.959 2.959 0 0 0-.6 1.774 3.019 3.019 0 1 0 3.019-3.019 3.277 3.277 0 0 0-1.472.377 19.321 19.321 0 0 0-2.529-.755 20.258 20.258 0 0 1 7.4-2.491 3.021 3.021 0 1 0 3.019-3.17zm-53.968-1.735v-.038a8.368 8.368 0 0 1 .491-4.645 10.737 10.737 0 0 1-.264 6.831 80.532 80.532 0 0 1-.227-2.148zm2.755 14.832a15.86 15.86 0 0 1 8.227 3.17c5.812 4.454 8.718 12.793 10.114 20.757-10.264-3.284-15.586-14.418-18.341-23.928z" transform="translate(.001)"/></g><path id="gPath_2" data-name="Path 2" class="gcls-2" d="M69.572 44.9a2.25 2.25 0 0 0-2.072 1.357 4.4 4.4 0 0 0-1.66.226 5.133 5.133 0 0 0-2.566 2.3 47.744 47.744 0 0 1 1.736-7.435 23.011 23.011 0 0 1 2.038-4.566 9.277 9.277 0 0 0 .679-1.4 2.267 2.267 0 1 0-.415.038c-.151.34-.34.679-.566 1.17a25.553 25.553 0 0 0-2.046 4.648 50.517 50.517 0 0 0-1.887 8.341h.076c-.038.113-.113.188-.151.3a16.317 16.317 0 0 0-1.887-6.68 2.229 2.229 0 0 0 .793-1.736 2.265 2.265 0 1 0-2.265 2.265 2.306 2.306 0 0 0 1.132-.3 16.452 16.452 0 0 1 1.849 6.83 77.4 77.4 0 0 0-9.473-7.208 1.993 1.993 0 0 0 .038-.491 2.265 2.265 0 1 0-2.265 2.265 2.312 2.312 0 0 0 2.113-1.434 75.915 75.915 0 0 1 9.586 7.359l.226 2.83V90.94h.377V53.579l-.188-2.793c.755-2.113 1.812-3.434 3.17-3.925a3.851 3.851 0 0 1 1.4-.226 2.548 2.548 0 0 0-.076.529 2.264 2.264 0 1 0 4.529 0 2.239 2.239 0 0 0-2.225-2.264z" transform="translate(-30.133 -19.236)"/></g><text id="gthe_therapy_room" data-name="the therapy room" class="gcls-3" transform="translate(-148.158 10)"><tspan x="0" y="0">the</tspan><tspan class="gcls-4"><tspan x="0" y="29">therapy</tspan><tspan x="0" y="58">room</tspan></tspan></text></g></symbol><symbol viewBox="-1373.506 86 165.102 86" id="logo-mint" xmlns="http://www.w3.org/2000/svg"><defs><style>.hcls-1{fill:#d8ffef}.hcls-2{fill:#00ad84}.hcls-3{fill:#474b50;font-size:21px;font-family:OpenSans,Open Sans}.hcls-4{font-family:OpenSans-Semibold,Open Sans;font-weight:600}</style></defs><g id="hlogo" transform="translate(-1225.348 98)"><g id="hGroup_13" data-name="Group 13" transform="translate(-54.006 -3.381)"><g id="hGroup_3" data-name="Group 3"><circle id="hEllipse_1" data-name="Ellipse 1" class="hcls-1" cx="3.019" cy="3.019" r="3.019" transform="translate(17.361 10.19)"/><path id="hPath_1" data-name="Path 1" class="hcls-1" d="M67.931 14.718a2.986 2.986 0 0 0-2.83 2 20.533 20.533 0 0 0-8.189 2.717 61.376 61.376 0 0 0 3.848-9.661c.113 0 .264.038.377.038a3.019 3.019 0 1 0-3.019-3.019 3.078 3.078 0 0 0 1.548 2.642 58.765 58.765 0 0 1-3.283 8.453c.113-3.4-.226-5.812-1.019-7.322a2.682 2.682 0 0 0 .113-.793 3.021 3.021 0 1 0-.793 2.038c.491 1.434.793 4 .415 8.6a11.414 11.414 0 0 0-1.246.793l.3.491-.415-.377a69.664 69.664 0 0 0-16.452 33.669c-.113.641-.226 1.283-.34 1.887-.038-.415-.113-.868-.151-1.321V43.211a2.608 2.608 0 0 0 .943.151 3.031 3.031 0 1 0-1.7-.529v7.775C34.191 40.8 30.719 33.89 25.624 30.04a17.089 17.089 0 0 0-9.246-3.434 89.047 89.047 0 0 1-1.925-9.246c2.076-4.378 1.736-7.812.679-10.265a7.306 7.306 0 0 1 .755-.793 8.58 8.58 0 0 1 6-1.622 3.021 3.021 0 1 0 3.019-3.17 3.068 3.068 0 0 0-2.868 2.038 9.586 9.586 0 0 0-6.868 1.887 7.245 7.245 0 0 0-.566.529 10.72 10.72 0 0 0-.83-1.283 2.531 2.531 0 0 0 .566-1.662 3.019 3.019 0 1 0-3.019 3.019 2.924 2.924 0 0 0 1.7-.529 10.308 10.308 0 0 1 .868 1.434 8.64 8.64 0 0 0-1.058 6.157c0 .226.113 1.774.453 4.151 0 .038-.038.038-.038.076l.038.038a88.208 88.208 0 0 0 1.849 9.246 22.259 22.259 0 0 0-4.114.3A6.948 6.948 0 0 0 8.3 21.776a3.043 3.043 0 1 0-.227 1.245 6.175 6.175 0 0 1 1.887 4.038 39.373 39.373 0 0 0-4.865 1.321l.188.529a2.973 2.973 0 0 0-2.265-1.019 3.019 3.019 0 1 0 3.019 3.019 2.922 2.922 0 0 0-.415-1.51 27.067 27.067 0 0 1 9.85-1.7c.3 1.057.6 2.113.981 3.208 4 12.039 10.53 19.662 18.795 22.04.377 2.3.6 4.566.793 6.642v1.925h.113c.038.529.038 1.019.076 1.51a51.648 51.648 0 0 0 0 8.567l.566-.076.566.038c0-.038.226-3.51.038-8.453a69.031 69.031 0 0 1 17.133-40.946c.529-.34 1.019-.641 1.51-.905A27.593 27.593 0 0 1 59.1 22a2.959 2.959 0 0 0-.6 1.774 3.019 3.019 0 1 0 3.019-3.019 3.277 3.277 0 0 0-1.472.377 19.321 19.321 0 0 0-2.529-.755 20.258 20.258 0 0 1 7.4-2.491 3.021 3.021 0 1 0 3.019-3.17zm-53.968-1.735v-.038a8.368 8.368 0 0 1 .491-4.645 10.737 10.737 0 0 1-.264 6.831 80.532 80.532 0 0 1-.227-2.148zm2.755 14.832a15.86 15.86 0 0 1 8.227 3.17c5.812 4.454 8.718 12.793 10.114 20.757-10.264-3.284-15.586-14.418-18.341-23.928z" transform="translate(.001)"/></g><path id="hPath_2" data-name="Path 2" class="hcls-2" d="M69.572 44.9a2.25 2.25 0 0 0-2.072 1.357 4.4 4.4 0 0 0-1.66.226 5.133 5.133 0 0 0-2.566 2.3 47.744 47.744 0 0 1 1.736-7.435 23.011 23.011 0 0 1 2.038-4.566 9.277 9.277 0 0 0 .679-1.4 2.267 2.267 0 1 0-.415.038c-.151.34-.34.679-.566 1.17a25.553 25.553 0 0 0-2.046 4.648 50.517 50.517 0 0 0-1.887 8.341h.076c-.038.113-.113.188-.151.3a16.317 16.317 0 0 0-1.887-6.68 2.229 2.229 0 0 0 .793-1.736 2.265 2.265 0 1 0-2.265 2.265 2.306 2.306 0 0 0 1.132-.3 16.452 16.452 0 0 1 1.849 6.83 77.4 77.4 0 0 0-9.473-7.208 1.993 1.993 0 0 0 .038-.491 2.265 2.265 0 1 0-2.265 2.265 2.312 2.312 0 0 0 2.113-1.434 75.915 75.915 0 0 1 9.586 7.359l.226 2.83V90.94h.377V53.579l-.188-2.793c.755-2.113 1.812-3.434 3.17-3.925a3.851 3.851 0 0 1 1.4-.226 2.548 2.548 0 0 0-.076.529 2.264 2.264 0 1 0 4.529 0 2.239 2.239 0 0 0-2.225-2.264z" transform="translate(-30.133 -19.236)"/></g><text id="hthe_therapy_room" data-name="the therapy room" class="hcls-3" transform="translate(-148.158 10)"><tspan x="0" y="0">the</tspan><tspan class="hcls-4"><tspan x="0" y="29">therapy</tspan><tspan x="0" y="58">room</tspan></tspan></text></g></symbol><symbol viewBox="-1373.506 85 165.102 92" id="logo-mint-full" xmlns="http://www.w3.org/2000/svg"><defs><style>.icls-1,.icls-2{fill:#00ad84}.icls-2{font-size:21px;font-family:Poppins-Medium,Poppins;font-weight:500}.icls-3{font-family:Poppins;font-weight:400}</style></defs><g id="ilogo" transform="translate(-1225.348 98)"><g id="iGroup_13" data-name="Group 13" transform="translate(-54.006 -3.381)"><g id="iGroup_3" data-name="Group 3"><circle id="iEllipse_1" data-name="Ellipse 1" class="icls-1" cx="3.019" cy="3.019" r="3.019" transform="translate(17.361 10.19)"/><path id="iPath_1" data-name="Path 1" class="icls-1" d="M67.931 14.718a2.986 2.986 0 0 0-2.83 2 20.533 20.533 0 0 0-8.189 2.717 61.376 61.376 0 0 0 3.848-9.661c.113 0 .264.038.377.038a3.019 3.019 0 1 0-3.019-3.019 3.078 3.078 0 0 0 1.548 2.642 58.765 58.765 0 0 1-3.283 8.453c.113-3.4-.226-5.812-1.019-7.322a2.682 2.682 0 0 0 .113-.793 3.021 3.021 0 1 0-.793 2.038c.491 1.434.793 4 .415 8.6a11.414 11.414 0 0 0-1.246.793l.3.491-.415-.377a69.664 69.664 0 0 0-16.452 33.669c-.113.641-.226 1.283-.34 1.887-.038-.415-.113-.868-.151-1.321V43.211a2.608 2.608 0 0 0 .943.151 3.031 3.031 0 1 0-1.7-.529v7.775C34.191 40.8 30.719 33.89 25.624 30.04a17.089 17.089 0 0 0-9.246-3.434 89.047 89.047 0 0 1-1.925-9.246c2.076-4.378 1.736-7.812.679-10.265a7.306 7.306 0 0 1 .755-.793 8.58 8.58 0 0 1 6-1.622 3.021 3.021 0 1 0 3.019-3.17 3.068 3.068 0 0 0-2.868 2.038 9.586 9.586 0 0 0-6.868 1.887 7.245 7.245 0 0 0-.566.529 10.72 10.72 0 0 0-.83-1.283 2.531 2.531 0 0 0 .566-1.662 3.019 3.019 0 1 0-3.019 3.019 2.924 2.924 0 0 0 1.7-.529 10.308 10.308 0 0 1 .868 1.434 8.64 8.64 0 0 0-1.058 6.157c0 .226.113 1.774.453 4.151 0 .038-.038.038-.038.076l.038.038a88.208 88.208 0 0 0 1.849 9.246 22.259 22.259 0 0 0-4.114.3A6.948 6.948 0 0 0 8.3 21.776a3.043 3.043 0 1 0-.227 1.245 6.175 6.175 0 0 1 1.887 4.038 39.373 39.373 0 0 0-4.865 1.321l.188.529a2.973 2.973 0 0 0-2.265-1.019 3.019 3.019 0 1 0 3.019 3.019 2.922 2.922 0 0 0-.415-1.51 27.067 27.067 0 0 1 9.85-1.7c.3 1.057.6 2.113.981 3.208 4 12.039 10.53 19.662 18.795 22.04.377 2.3.6 4.566.793 6.642v1.925h.113c.038.529.038 1.019.076 1.51a51.648 51.648 0 0 0 0 8.567l.566-.076.566.038c0-.038.226-3.51.038-8.453a69.031 69.031 0 0 1 17.133-40.946c.529-.34 1.019-.641 1.51-.905A27.593 27.593 0 0 1 59.1 22a2.959 2.959 0 0 0-.6 1.774 3.019 3.019 0 1 0 3.019-3.019 3.277 3.277 0 0 0-1.472.377 19.321 19.321 0 0 0-2.529-.755 20.258 20.258 0 0 1 7.4-2.491 3.021 3.021 0 1 0 3.019-3.17zm-53.968-1.735v-.038a8.368 8.368 0 0 1 .491-4.645 10.737 10.737 0 0 1-.264 6.831 80.532 80.532 0 0 1-.227-2.148zm2.755 14.832a15.86 15.86 0 0 1 8.227 3.17c5.812 4.454 8.718 12.793 10.114 20.757-10.264-3.284-15.586-14.418-18.341-23.928z" transform="translate(.001)"/></g><path id="iPath_2" data-name="Path 2" class="icls-1" d="M69.572 44.9a2.25 2.25 0 0 0-2.072 1.357 4.4 4.4 0 0 0-1.66.226 5.133 5.133 0 0 0-2.566 2.3 47.744 47.744 0 0 1 1.736-7.435 23.011 23.011 0 0 1 2.038-4.566 9.277 9.277 0 0 0 .679-1.4 2.267 2.267 0 1 0-.415.038c-.151.34-.34.679-.566 1.17a25.553 25.553 0 0 0-2.046 4.648 50.517 50.517 0 0 0-1.887 8.341h.076c-.038.113-.113.188-.151.3a16.317 16.317 0 0 0-1.887-6.68 2.229 2.229 0 0 0 .793-1.736 2.265 2.265 0 1 0-2.265 2.265 2.306 2.306 0 0 0 1.132-.3 16.452 16.452 0 0 1 1.849 6.83 77.4 77.4 0 0 0-9.473-7.208 1.993 1.993 0 0 0 .038-.491 2.265 2.265 0 1 0-2.265 2.265 2.312 2.312 0 0 0 2.113-1.434 75.915 75.915 0 0 1 9.586 7.359l.226 2.83V90.94h.377V53.579l-.188-2.793c.755-2.113 1.812-3.434 3.17-3.925a3.851 3.851 0 0 1 1.4-.226 2.548 2.548 0 0 0-.076.529 2.264 2.264 0 1 0 4.529 0 2.239 2.239 0 0 0-2.225-2.264z" transform="translate(-30.133 -19.236)"/></g><text id="ithe_therapy_room" data-name="the therapy room" class="icls-2" transform="translate(-148.158 10)"><tspan x="0" y="0">the</tspan><tspan class="icls-3"><tspan x="0" y="29">therapy</tspan><tspan x="0" y="58">room</tspan></tspan></text></g></symbol></svg>