<svg xmlns="http://www.w3.org/2000/svg" viewBox="0 0 29.23 25.51" width="29.23" height="25.51"><title>google-white</title><path d="M.56 18.62a4.92 4.92 0 0 1 1.94-2 9.85 9.85 0 0 1 3.3-1.24 22.79 22.79 0 0 1 2.86-.3 6.33 6.33 0 0 1-.72-1 2.18 2.18 0 0 1-.37-1.27 1.7 1.7 0 0 1 .15-.81l.22-.58a8.87 8.87 0 0 1-1 .07 5 5 0 0 1-4-1.69 5.12 5.12 0 0 1-1.43-3.6 6.11 6.11 0 0 1 2.08-4.41 7.24 7.24 0 0 1 3-1.51A14.62 14.62 0 0 1 9.4 0h6.68l-2.14 1.18H12a.28.28 0 0 1 .15.06l.15.12.18.19.16.18a5.27 5.27 0 0 1 .69.94 7.94 7.94 0 0 1 .57 1.28 6.62 6.62 0 0 1 .2 1.71 5.27 5.27 0 0 1-.73 2.88 8.06 8.06 0 0 1-.73 1l-.91.91a4.79 4.79 0 0 0-.52.71 1.6 1.6 0 0 0-.29 1 1.29 1.29 0 0 0 .3.87q.28.36.48.58l1 .94a12.09 12.09 0 0 1 1.85 1.92 4.8 4.8 0 0 1 .77 2.78 5.65 5.65 0 0 1-2.12 4.33 9.57 9.57 0 0 1-6.36 2A7.92 7.92 0 0 1 1.73 24 4.12 4.12 0 0 1 0 20.7a5 5 0 0 1 .56-2.08zm3.62 4.28a6.81 6.81 0 0 0 4.12 1.18A5.85 5.85 0 0 0 12 23a3.14 3.14 0 0 0 1.23-2.56 3.26 3.26 0 0 0-.83-2.23A21 21 0 0 0 9.69 16H8.58q-.4 0-1.07.06a15.28 15.28 0 0 0-2.12.48l-.72.3a4.23 4.23 0 0 0-.93.61 3.32 3.32 0 0 0-.79 1A3.09 3.09 0 0 0 2.6 20a3.45 3.45 0 0 0 1.58 2.9zm1-14.48A5.52 5.52 0 0 0 6.57 10a3 3 0 0 0 1.91.64 3.48 3.48 0 0 0 2.4-1 3.39 3.39 0 0 0 .59-1.33q.08-.76.08-1.14a8.42 8.42 0 0 0-1.07-4 4.43 4.43 0 0 0-1.32-1.54A3.48 3.48 0 0 0 7.25 1a3.2 3.2 0 0 0-2.38 1.14 4 4 0 0 0-.76 2.35v.14a7.84 7.84 0 0 0 1.1 3.8zm16.64-.79v5.67h1.77V7.63h5.61v-2h-5.58V0h-1.77v5.61h-5.62v2z" fill="#fff" style="isolation:isolate"/></svg>