<svg xmlns="http://www.w3.org/2000/svg" xmlns:xlink="http://www.w3.org/1999/xlink" viewBox="0 0 141.56 183.97"><defs><style>.cls-1{fill:none;}.cls-2{clip-path:url(#clip-path);}.cls-3{fill:url(#radial-gradient);}.cls-4{clip-path:url(#clip-path-2);}.cls-5{fill:#fff;}</style><clipPath id="clip-path" transform="translate(0 0)"><rect class="cls-1" width="141.56" height="183.97"/></clipPath><radialGradient id="radial-gradient" cx="-20.45" cy="841.21" r="1.31" gradientTransform="matrix(135.85, 0, 0, -175.11, 2845.99, 147394.38)" gradientUnits="userSpaceOnUse"><stop offset="0" stop-color="#ed1b2f"/><stop offset="1" stop-color="#bc141a"/></radialGradient><clipPath id="clip-path-2" transform="translate(0 0)"><rect class="cls-1" x="16.79" y="21.83" width="107.97" height="140.31"/></clipPath></defs><title>british_heart_foundation_logo</title><g id="Layer_2" data-name="Layer 2"><g id="Layer_1-2" data-name="Layer 1"><g class="cls-2"><rect class="cls-3" width="141.56" height="183.97"/></g><g class="cls-4"><path class="cls-5" d="M112.21,97.28c-2.34-.15-1.72-5.45-6.66-4.86-3.53.41-3.92,4.45-4.22,7.58-.34,3.52-.76,6.5-1.85,6-.91-.4-.67-2-1.05-6.91C98,93.5,96.55,90.4,93.1,89.87c-4.25-.65-5.9,5.52-6.64,7.92s-2,3.46-2.81,3.46-1.88-.33-2.22-3.14,2.08-7.7,5.42-11.09c10.05-10.21,24.48-17.42,24.48-33.19,0-14.91-11.11-22.78-21.34-22.78A18.86,18.86,0,0,0,76.3,36.93c-2.43,2.33-3.49,4.93-4.42,4.93s-2-2.6-4.4-4.93a18.86,18.86,0,0,0-13.7-5.87c-10.23,0-21.34,7.87-21.34,22.78,0,15.77,14.43,23,24.48,33.19,3.34,3.39,5.7,8.25,5.42,11.09C62,101.18,60.81,101,60.25,101c-.32,0-1.89-.55-2.86-4-.88-3.18-2-6.1-5.64-6.31-4.08-.23-5.15,5.18-5.5,9.49-.3,3.69-.41,10.63-1.84,10.05-.85-.34-1.26-8.28-1.94-14.38-.53-4.72-1.17-14.8-4-16.61C35,77.06,32,79.51,31,83.37c-.71,2.88-.81,5.27-1.71,9.16-.67,2.88-1.43,4.72-4.35,4.72l-8.17,0v4.26h1.87c10.58.43,13.56-.61,14.82-5.21a92.76,92.76,0,0,0,1.82-10.16c.38-2,1.67-3,2.23,2.57.28,2.78.54,6.3,1,9.88,1.29,10.53,1.63,17.8,6.4,18.18,5.3.43,5.33-8.94,5.68-12.65.22-2.35.53-9.11,1.77-8.39,1.72,1,1.06,9.47,9.21,9.82,4.67.2,6.38-3.2,6.68-7,.28-3.56-3.25-8.86-8.05-13.42-11.58-11-19.66-16.66-19.66-28.78,0-12.37,9-18.5,16.77-18.5,1.73,0,7-.28,13.35,9.64a1.44,1.44,0,0,0,2.42,0c6.35-9.92,11.62-9.64,13.35-9.64,7.82,0,16.77,6.13,16.77,18.5,0,12.12-8.13,17.48-19.72,28.47-4.8,4.56-8.08,10.15-8,13.72s2,7.2,6.68,7c7.89-.35,7.44-6.58,9.06-9.92.87-1.81,2-1.81,2.28.91s.3,3.65.6,6.53c.39,3.7,1.75,7.87,5.23,7.54,3-.28,4.7-2.06,5.26-7.39.16-1.56.28-2.27.49-4.53.12-1.28.53-2.26,1.11-2.07s1.13,1.53,1.54,2.41c1.23,2.66,4.08,2.52,4.74,2.53,2.88.05,3.89,0,3.89,0l8.37,0V97.43c-4.81,0-11.15-.06-12.55-.15" transform="translate(0 0)"/><path class="cls-5" d="M23.38,122.35a18.47,18.47,0,0,1,3.24-.26,5.9,5.9,0,0,1,3.48.77,2.6,2.6,0,0,1,1.26,2.29,2.8,2.8,0,0,1-2,2.62v0a3.07,3.07,0,0,1,2.46,3,3.2,3.2,0,0,1-1.17,2.51c-.87.75-2.29,1.12-4.52,1.12a21,21,0,0,1-2.73-.16Zm2.21,4.8h1.14c1.54,0,2.4-.73,2.4-1.75s-.87-1.67-2.27-1.67a6.1,6.1,0,0,0-1.27.1Zm0,5.58a7,7,0,0,0,1.18.06c1.42,0,2.7-.53,2.7-2s-1.25-2-2.77-2h-1.1Z" transform="translate(0 0)"/><path class="cls-5" d="M33.7,128.39c0-1.18,0-2-.07-2.82h1.92l.08,1.67h.06a2.62,2.62,0,0,1,2.4-1.87,2.1,2.1,0,0,1,.52,0v2.09a3,3,0,0,0-.65-.06,2,2,0,0,0-2,1.68,3.72,3.72,0,0,0-.06.67v4.56H33.7Z" transform="translate(0 0)"/><path class="cls-5" d="M41.22,124.21a1.27,1.27,0,1,1,1.33-1.27,1.23,1.23,0,0,1-1.33,1.27Zm-1.09,1.36h2.22v8.79H40.13Z" transform="translate(0 0)"/><path class="cls-5" d="M47.29,123.31v2.26H49.4v1.66H47.29v3.88c0,1.08.29,1.62,1.14,1.62a2.92,2.92,0,0,0,.86-.1l0,1.69a5,5,0,0,1-1.62.23,2.57,2.57,0,0,1-1.91-.72,3.49,3.49,0,0,1-.69-2.47v-4.13H43.86v-1.66h1.25v-1.64Z" transform="translate(0 0)"/><path class="cls-5" d="M52.17,124.21a1.27,1.27,0,1,1,1.33-1.27,1.23,1.23,0,0,1-1.33,1.27Zm-1.09,1.36h2.22v8.79H51.08Z" transform="translate(0 0)"/><path class="cls-5" d="M55.6,132.31a4.88,4.88,0,0,0,2.24.64c1,0,1.41-.41,1.41-1s-.36-.9-1.44-1.28c-1.72-.59-2.44-1.52-2.43-2.57,0-1.54,1.28-2.75,3.33-2.75a5.06,5.06,0,0,1,2.33.52l-.44,1.56a4,4,0,0,0-1.86-.51c-.79,0-1.23.39-1.23.93s.42.82,1.53,1.23c1.6.57,2.34,1.38,2.35,2.68,0,1.6-1.25,2.76-3.57,2.76a5.68,5.68,0,0,1-2.68-.62Z" transform="translate(0 0)"/><path class="cls-5" d="M63.23,121.54h2.22v5.23h0a3,3,0,0,1,1.11-1,3.13,3.13,0,0,1,1.52-.39c1.49,0,3.07,1,3.07,3.81v5.17H69v-4.93c0-1.27-.46-2.24-1.69-2.24a1.84,1.84,0,0,0-1.72,1.25,1.89,1.89,0,0,0-.1.67v5.26H63.23Z" transform="translate(0 0)"/><polygon class="cls-5" points="79.58 122.19 79.58 127.06 84.72 127.06 84.72 122.19 86.95 122.19 86.95 134.35 84.72 134.35 84.72 128.99 79.58 128.99 79.58 134.35 77.36 134.35 77.36 122.19 79.58 122.19"/><path class="cls-5" d="M91,130.57c.06,1.59,1.29,2.29,2.71,2.29a6.69,6.69,0,0,0,2.42-.41l.33,1.53a8,8,0,0,1-3.07.56,4.16,4.16,0,0,1-4.52-4.46c0-2.42,1.47-4.72,4.3-4.72s3.79,2.35,3.79,4.27a4.7,4.7,0,0,1-.08.93ZM94.85,129A1.89,1.89,0,0,0,93,126.88,2.17,2.17,0,0,0,91,129Z" transform="translate(0 0)"/><path class="cls-5" d="M105.54,132.24a13.28,13.28,0,0,0,.14,2.12h-2l-.15-1h-.05a3.21,3.21,0,0,1-2.59,1.18,2.6,2.6,0,0,1-2.77-2.61c0-2.22,2-3.34,5.21-3.33v-.15c0-.58-.23-1.54-1.78-1.53a4.69,4.69,0,0,0-2.36.66l-.44-1.44a6.35,6.35,0,0,1,3.18-.78c2.82,0,3.62,1.78,3.62,3.7ZM103.38,130c-1.57,0-3.07.31-3.07,1.65a1.17,1.17,0,0,0,1.27,1.27,1.81,1.81,0,0,0,1.74-1.21,1.68,1.68,0,0,0,.06-.48Z" transform="translate(0 0)"/><path class="cls-5" d="M107.89,128.39c0-1.18,0-2-.07-2.82h1.92l.08,1.67h.06a2.62,2.62,0,0,1,2.4-1.87,2.1,2.1,0,0,1,.52,0v2.09a3,3,0,0,0-.65-.06,2,2,0,0,0-2,1.68,3.72,3.72,0,0,0-.06.67v4.56h-2.22Z" transform="translate(0 0)"/><path class="cls-5" d="M116.86,123.31v2.26H119v1.66h-2.11v3.88c0,1.08.29,1.62,1.14,1.62a2.92,2.92,0,0,0,.86-.1l0,1.69a5,5,0,0,1-1.62.23,2.57,2.57,0,0,1-1.91-.72,3.5,3.5,0,0,1-.69-2.47v-4.13h-1.25v-1.66h1.25v-1.64Z" transform="translate(0 0)"/><polygon class="cls-5" points="23.13 138.5 30.7 138.5 30.7 140.47 25.52 140.47 25.52 144.09 30.34 144.09 30.34 146.04 25.52 146.04 25.52 151.6 23.13 151.6 23.13 138.5"/><path class="cls-5" d="M37.06,151.81a4.57,4.57,0,0,1-4.73-4.87,4.68,4.68,0,0,1,4.89-5,4.54,4.54,0,0,1,4.7,4.85,4.68,4.68,0,0,1-4.84,5Zm.06-1.74c1.37,0,2.32-1.32,2.32-3.23,0-1.49-.66-3.18-2.31-3.18s-2.37,1.64-2.37,3.22c0,1.82.91,3.2,2.33,3.2Z" transform="translate(0 0)"/><path class="cls-5" d="M52.36,148.77c0,1.12,0,2.07.08,2.84H50.35l-.12-1.43h-.06a3.43,3.43,0,0,1-3,1.64c-1.72,0-3.29-1-3.29-4.13v-5.55h2.39v5.15c0,1.57.5,2.58,1.76,2.58a2,2,0,0,0,1.83-1.28,2.08,2.08,0,0,0,.13-.74v-5.71h2.39Z" transform="translate(0 0)"/><path class="cls-5" d="M54.95,145c0-1.09,0-2-.08-2.81H57l.12,1.42h.06a3.45,3.45,0,0,1,3-1.63c1.65,0,3.36,1.06,3.36,4.05v5.62H61.12v-5.34c0-1.36-.5-2.39-1.81-2.39a2,2,0,0,0-1.86,1.4,2.34,2.34,0,0,0-.11.76v5.57H54.95Z" transform="translate(0 0)"/><path class="cls-5" d="M74.78,137.8v11.15c0,1,0,2,.08,2.65H72.72l-.11-1.5h0a3.38,3.38,0,0,1-3.07,1.71c-2.26,0-4-1.93-4-4.83,0-3.17,2-5.05,4.24-5.05a3,3,0,0,1,2.65,1.23h0V137.8Zm-2.39,8.28a3.23,3.23,0,0,0-.05-.62,2.1,2.1,0,0,0-2.06-1.68c-1.54,0-2.4,1.36-2.4,3.11s.86,3,2.37,3a2.12,2.12,0,0,0,2.07-1.7,2.86,2.86,0,0,0,.07-.7Z" transform="translate(0 0)"/><path class="cls-5" d="M84.69,149.32a14.23,14.23,0,0,0,.15,2.28H82.68l-.16-1.05h-.06a3.46,3.46,0,0,1-2.79,1.27,2.8,2.8,0,0,1-3-2.81c0-2.39,2.13-3.6,5.61-3.58v-.16c0-.62-.25-1.65-1.92-1.65a5,5,0,0,0-2.54.71l-.47-1.55a6.84,6.84,0,0,1,3.43-.84c3,0,3.9,1.91,3.9,4ZM82.36,147c-1.69,0-3.3.33-3.3,1.77a1.26,1.26,0,0,0,1.36,1.36,2,2,0,0,0,1.87-1.31,1.79,1.79,0,0,0,.07-.52Z" transform="translate(0 0)"/><path class="cls-5" d="M90,139.71v2.43h2.28v1.78H90v4.17c0,1.16.31,1.75,1.22,1.75a3.15,3.15,0,0,0,.93-.1l0,1.82a5.35,5.35,0,0,1-1.74.25,2.77,2.77,0,0,1-2.06-.78,3.76,3.76,0,0,1-.75-2.65v-4.45H86.27v-1.78h1.35v-1.76Z" transform="translate(0 0)"/><path class="cls-5" d="M95.21,140.68a1.36,1.36,0,1,1,1.44-1.36,1.33,1.33,0,0,1-1.44,1.36ZM94,142.14h2.39v9.46H94Z" transform="translate(0 0)"/><path class="cls-5" d="M103.15,151.81a4.57,4.57,0,0,1-4.73-4.87,4.68,4.68,0,0,1,4.89-5,4.54,4.54,0,0,1,4.7,4.85,4.68,4.68,0,0,1-4.84,5Zm.06-1.74c1.37,0,2.32-1.32,2.32-3.23,0-1.49-.66-3.18-2.31-3.18s-2.37,1.64-2.37,3.22c0,1.82.91,3.2,2.33,3.2Z" transform="translate(0 0)"/><path class="cls-5" d="M110,145c0-1.09,0-2-.08-2.81H112l.12,1.42h.05a3.45,3.45,0,0,1,3-1.63c1.65,0,3.36,1.06,3.36,4.05v5.62h-2.39v-5.34c0-1.36-.5-2.39-1.81-2.39a2,2,0,0,0-1.86,1.4,2.34,2.34,0,0,0-.11.76v5.57H110Z" transform="translate(0 0)"/></g></g></g></svg>