<svg xmlns="http://www.w3.org/2000/svg" xmlns:xlink="http://www.w3.org/1999/xlink" viewBox="0 0 198.89 68.37"><defs><style>.cls-1,.cls-3{fill:none;}.cls-2{fill:#ee2b75;}.cls-3{stroke:#ee2b75;stroke-width:0.42px;}.cls-4{fill:#808285;}.cls-5{clip-path:url(#clip-path);}</style><clipPath id="clip-path" transform="translate(-0.55 -0.21)"><rect class="cls-1" width="199.44" height="68.62"/></clipPath></defs><title>coppa_feel_logo</title><g id="Layer_2" data-name="Layer 2"><g id="Layer_1-2" data-name="Layer 1"><path class="cls-2" d="M86.71,35.62c-1.79.31-1.72,2.1-1.49,3.41s.78,3,2.57,2.72,1.72-2.12,1.49-3.43-.77-3-2.56-2.7m1.67,9.57c-4.65.81-7.29-1.9-7.89-5.33s1-6.86,5.62-7.67S93.4,34.06,94,37.49s-1,6.88-5.61,7.69" transform="translate(-0.55 -0.21)"/><path class="cls-3" d="M86.71,35.62c-1.79.31-1.72,2.1-1.49,3.41s.78,3,2.57,2.72,1.72-2.12,1.49-3.43S88.5,35.3,86.71,35.62Zm1.67,9.57c-4.65.81-7.29-1.9-7.89-5.33s1-6.86,5.62-7.67S93.4,34.06,94,37.49,93,44.37,88.38,45.18Z" transform="translate(-0.55 -0.21)"/><path class="cls-2" d="M102.74,39.13c1.69-.3,1.8-2,1.54-3.42s-.92-3-2.61-2.71-1.8,2-1.54,3.44.92,3,2.61,2.69M94.49,31l4.56-.8.24,1.36h0c.46-.89,1-1.9,3.33-2.3,3.51-.61,5.81,2.55,6.35,5.65.51,2.91,0,6.64-4.15,7.36a4.1,4.1,0,0,1-3.68-1.08h0l.94,5.37-4.72.83Z" transform="translate(-0.55 -0.21)"/><path class="cls-3" d="M102.74,39.13c1.69-.3,1.8-2,1.54-3.42s-.92-3-2.61-2.71-1.8,2-1.54,3.44S101,39.43,102.74,39.13ZM94.49,31l4.56-.8.24,1.36h0c.46-.89,1-1.9,3.33-2.3,3.51-.61,5.81,2.55,6.35,5.65.51,2.91,0,6.64-4.15,7.36a4.1,4.1,0,0,1-3.68-1.08h0l.94,5.37-4.72.83Z" transform="translate(-0.55 -0.21)"/><path class="cls-2" d="M117.72,36.52c1.69-.3,1.8-2,1.54-3.42s-.92-3-2.61-2.71-1.8,2-1.54,3.44.92,3,2.61,2.69m-8.25-8.1,4.56-.8.24,1.36h0c.46-.89,1-1.9,3.33-2.3,3.51-.61,5.81,2.55,6.35,5.65.51,2.91,0,6.64-4.15,7.36a4.1,4.1,0,0,1-3.68-1.08h0l.94,5.37-4.72.83Z" transform="translate(-0.55 -0.21)"/><path class="cls-3" d="M117.72,36.52c1.69-.3,1.8-2,1.54-3.42s-.92-3-2.61-2.71-1.8,2-1.54,3.44S116,36.81,117.72,36.52Zm-8.25-8.1,4.56-.8.24,1.36h0c.46-.89,1-1.9,3.33-2.3,3.51-.61,5.81,2.55,6.35,5.65.51,2.91,0,6.64-4.15,7.36a4.1,4.1,0,0,1-3.68-1.08h0l.94,5.37-4.72.83Z" transform="translate(-0.55 -0.21)"/><path class="cls-2" d="M133.19,31.31a8.15,8.15,0,0,1-1.76.92c-1,.42-1.51.78-1.36,1.62a1.38,1.38,0,0,0,1.68.89,1.9,1.9,0,0,0,1.64-2.28Zm5,2A5.09,5.09,0,0,0,139.26,36l-4.82.84a3.38,3.38,0,0,1-.37-1.14h0a5.11,5.11,0,0,1-3.73,2.18c-2.38.42-4.57-.38-5-3-.68-3.91,3.92-4.57,6.25-5.44.62-.23,1.23-.54,1.1-1.32s-1-1-1.75-.87c-1.46.25-1.61,1-1.55,1.57l-4.39.77a3.63,3.63,0,0,1,1.56-3.72,10.31,10.31,0,0,1,4.1-1.45c5.92-1,6.3,1.43,6.72,3.82Z" transform="translate(-0.55 -0.21)"/><path class="cls-3" d="M133.19,31.31a8.15,8.15,0,0,1-1.76.92c-1,.42-1.51.78-1.36,1.62a1.38,1.38,0,0,0,1.68.89,1.9,1.9,0,0,0,1.64-2.28Zm5,2A5.09,5.09,0,0,0,139.26,36l-4.82.84a3.38,3.38,0,0,1-.37-1.14h0a5.11,5.11,0,0,1-3.73,2.18c-2.38.42-4.57-.38-5-3-.68-3.91,3.92-4.57,6.25-5.44.62-.23,1.23-.54,1.1-1.32s-1-1-1.75-.87c-1.46.25-1.61,1-1.55,1.57l-4.39.77a3.63,3.63,0,0,1,1.56-3.72,10.31,10.31,0,0,1,4.1-1.45c5.92-1,6.3,1.43,6.72,3.82Z" transform="translate(-0.55 -0.21)"/><polygon class="cls-2" points="137.27 18.47 150.44 16.17 151.2 20.53 143.28 21.92 143.65 24.04 150.45 22.85 151.16 26.91 144.36 28.1 145.49 34.59 140.24 35.5 137.27 18.47"/><polygon class="cls-3" points="137.27 18.47 150.44 16.17 151.2 20.53 143.28 21.92 143.65 24.04 150.45 22.85 151.16 26.91 144.36 28.1 145.49 34.59 140.24 35.5 137.27 18.47"/><path class="cls-2" d="M162.46,24.1A2.06,2.06,0,0,0,160,22.39a2.27,2.27,0,0,0-2.07,2.5Zm-4.1,3.25a2.53,2.53,0,0,0,4.66.76l4.41-.77c-.49,2.84-2.87,4.53-5.69,5-4,.69-7.35-1.12-8.07-5.25a6.45,6.45,0,0,1,5.4-7.68c4.91-.86,7.52,1.51,8.36,6.33Z" transform="translate(-0.55 -0.21)"/><path class="cls-3" d="M162.46,24.1A2.06,2.06,0,0,0,160,22.39a2.27,2.27,0,0,0-2.07,2.5Zm-4.1,3.25a2.53,2.53,0,0,0,4.66.76l4.41-.77c-.49,2.84-2.87,4.53-5.69,5-4,.69-7.35-1.12-8.07-5.25a6.45,6.45,0,0,1,5.4-7.68c4.91-.86,7.52,1.51,8.36,6.33Z" transform="translate(-0.55 -0.21)"/><path class="cls-2" d="M177,21.56a2.06,2.06,0,0,0-2.44-1.71,2.27,2.27,0,0,0-2.07,2.5Zm-4.1,3.25a2.53,2.53,0,0,0,4.66.76L182,24.8c-.49,2.84-2.87,4.53-5.69,5-4,.69-7.35-1.12-8.07-5.25a6.45,6.45,0,0,1,5.4-7.68c4.91-.86,7.52,1.51,8.36,6.33Z" transform="translate(-0.55 -0.21)"/><path class="cls-3" d="M177,21.56a2.06,2.06,0,0,0-2.44-1.71,2.27,2.27,0,0,0-2.07,2.5Zm-4.1,3.25a2.53,2.53,0,0,0,4.66.76L182,24.8c-.49,2.84-2.87,4.53-5.69,5-4,.69-7.35-1.12-8.07-5.25a6.45,6.45,0,0,1,5.4-7.68c4.91-.86,7.52,1.51,8.36,6.33Z" transform="translate(-0.55 -0.21)"/><rect class="cls-2" x="182.95" y="10.5" width="4.8" height="17.29" transform="translate(-1.08 31.97) rotate(-9.91)"/><rect class="cls-3" x="182.95" y="10.5" width="4.8" height="17.29" transform="translate(-1.08 31.97) rotate(-9.91)"/><polygon class="cls-2" points="198.05 20.8 193.1 21.61 190.08 6.35 196.01 5.37 198.05 20.8"/><polygon class="cls-2" points="198.89 27.46 194.44 28.2 193.38 23.29 198.32 22.48 198.89 27.46"/><path class="cls-4" d="M58.05,37.51c-.14,0-.16-.16-.33-.16,0,.16.23.31.33.16" transform="translate(-0.55 -0.21)"/><path class="cls-4" d="M77.31,44.1l0-.21a.41.41,0,0,0,.25.16c0-.25.19-.55.05-.92h-.2c.07-.53.11-.86.11-.86l-3.4.3s-.09.21-.22.46M71.5,43a1.1,1.1,0,0,0-.27-.12l0-.1-.28,0a2.85,2.85,0,0,0-1,.11c-.6.06-.88.12-1.45.17-.06.45,1,.91.81,1.21h-.05a1.18,1.18,0,0,1-.05.49l0,.32h0a.91.91,0,0,0-.49.66,2.72,2.72,0,0,1-1.2,1.95,2,2,0,0,0,.2-.28,1.6,1.6,0,0,0-.3.35c-.15-.16-.3-.26-.42-.2a.82.82,0,0,1-.07.51h0a1.32,1.32,0,0,1-.45.46h-.12a2.5,2.5,0,0,1-.88.26c.65,0-.3.28-1,.28-.11.12-.3.07-.5.11a.55.55,0,0,0-.42.36l-.76-.08-.65-.07c0-.42-.4-.29-.56-1a2.41,2.41,0,0,0-1-1.36c-.19-.17-.18-.43-.33-.43s-.33.37-.52.62l-.14.14-.05,0,.05,0s-.16,0-.21,0-.13.31-.33.27c-.17-.34.23-.52.16-.92v-.27c-.13-1.21-.76-1.71-1-3A13.12,13.12,0,0,1,58.27,39c-.08-.1-.21-.16-.22-.33l0,0h0v0l0-.05a.91.91,0,0,0,0-.17c-.05-.34-.29-.51-.43-.76v-.05c0-.25-.17-.37-.16-.65.42-.07.37.32.71.33h.11c.38,0,.45-.45.71-.82.86-1.27,1.32-2.34,2.86-2.77.24,0,.2-.31.43-.33.58-.05.75.3,1.19.38a1,1,0,0,1,.54.16,1.46,1.46,0,0,0,.71.38c0-.07-.1,0-.11-.11h-.05c0-.12-.17-.14-.27-.18h0a2.64,2.64,0,0,1,.77.26,3.39,3.39,0,0,1,1,1c.08.13.15.31.26.46a7.26,7.26,0,0,1,.53,2c1.35-.13,4-2.15,4-2.15l2.67,1,.21-.42.33.38.72-.22,2.1-.37A6.86,6.86,0,0,0,76.38,34l.43-.1c0-.12-.06-.32-.12-.56.2-.06.37-.11.23.13.21.09,0-.24.16-.22.92-.27,2.14-.47,2.17-1.47,0-.57-.41-.69-.6-1.19-.17-.21-.37-.39-.54-.6a24.21,24.21,0,0,1-1.57-3.42c-.19-.36-.48-.65-.65-1a20.53,20.53,0,0,1-.65-2c-.45-1.42-.82-2.78-1.19-4.29a14.75,14.75,0,0,1-.81-4.23,7.36,7.36,0,0,0,0-2.61v-.92c0-.35.05-.78-.11-1-.17-.54-.2-1.14-.33-1.74-.08-.36-.34-.63-.43-1,0-.18,0-.38,0-.54s-.24-.4-.33-.6c-.19-.46-.33-1.12-.87-1s-.33.89-.38,1.41-.51.7-.65,1.09a.56.56,0,0,0,0,.65c0,.17.17.19.11.43-.42.07-1.18,0-1.3-.38.29-.27.52-.3.54-.65s-.35-.61-.32-.92c0-.57.78-.53.87-1.14a.41.41,0,0,0,.38-.11c.19-.11.08-.5,0-.65A1.93,1.93,0,0,0,68.62,4c-1.25,0-1.74,1.12-2.71,1.3-.8.34-.69,1.59-1.14,2.28a.58.58,0,0,0,0,.54.86.86,0,0,1,.11.6c-.08.15-.13.74.05.81s.26.32.27.6a1.91,1.91,0,0,0-.22,2c.62.17.66.89,1,1.25s1,.5,1.52.92c.18.82-1.43,1.32-.54,2.17a1.87,1.87,0,0,1,1.47.27c-.09.48-.5,1.22.11,1.63.28,0,.39-.08.65-.05a4.1,4.1,0,0,0,.49.27A2.33,2.33,0,0,0,70.63,20c.42.37.89,1,1.19,1.3s.47.21.49.49c0,1-1,0-1.14-.22-.64-.06-1,0-1.41-.33-.08-.09-.54-.11-.54.06a5.52,5.52,0,0,0-.6,2.61c.66.27.88-.34,1.36-.43-.68.64.21,2.14-.54,2.82h.05c0,.24-.19,0-.27,0a12.72,12.72,0,0,0-3.64-1.14h-.27c0-.12-.23,0-.33-.05a1.61,1.61,0,0,0-.92,0c-.11,0-.36-.07-.38.05h-.11c-.25,0-.34.1-.6.06-1.14,0-1.21,1.41-2.44,1.19a10.54,10.54,0,0,1-1.14.92c0,1.63-1.46.26-1.14-.81-.25-.1-.66-.35-.92-.11a7.77,7.77,0,0,0-1,.43,8.88,8.88,0,0,0-2.55,1.36,3.19,3.19,0,0,0-.76.6c-.26.08-.39.3-.6.43h-.06l-.21.17-.35-.19,0,0c-.16-.48-.32-1-.43-1.47-.32-.15-.1-.84-.16-1.25,0-.1-.06-.12-.05-.22s-.11-.36-.11-.6-.12-.17-.11-.33-.35-.16-.43-.33c-1.17-1.5-4.07-1.28-5.16-2.88.19,0,.2-.16.27-.27s0-.37,0-.54c-1-1.21-1.42-3-2.12-4.56a1.5,1.5,0,0,1-.49-.16A6.43,6.43,0,0,0,42.07,15a2,2,0,0,0-.54-.6c-.6-.19-.76-.87-1.41-.87s-1.17.86-1.68,1.25-.9.88-1.25.43c.35-.53,1.66-1.06,1.68-1.79,0-.35-.29-.43-.38-.81.64-.75-.32-1.1-.82-1.52A5.28,5.28,0,0,1,36,9.06a8.85,8.85,0,0,0-.92-.92C35,8.12,35,8,34.91,8c-.31-.32-.65-.62-1-.92a3.73,3.73,0,0,1-.43-.16c-.3-.06-.85-.21-1.08,0-.68,0-1.32.49-1.74.38V7.05a5.23,5.23,0,0,0,.71-.71c.23-.36.55-.64.76-1a.69.69,0,0,0,0-.76A8.65,8.65,0,0,0,25.89.32c-.09-.12-.41,0-.6-.05a1.69,1.69,0,0,0-2,1.14,1.58,1.58,0,0,0-.11.71c.44.73.28,1.74.54,2.66.87.32.66,1.34,1.09,2,.29.42.9.51,1.41.92S27.05,8.92,27.9,9a1.26,1.26,0,0,0,.81,0c.13,0,.23-.19.27-.05a2.2,2.2,0,0,0,.81,2.23,5.23,5.23,0,0,0,.71.7,12.54,12.54,0,0,0,2.71,3c.2.14.34.35.54.49s.15.32.38.33c.06.12.34,0,.49.05a.15.15,0,0,0,.11.16,1.17,1.17,0,0,1,.38,1.41.58.58,0,0,0,0,.54,23.37,23.37,0,0,1,1.57,2.44,1.79,1.79,0,0,0,.65.05.25.25,0,0,1-.06.16V21c.61,1,1.36,2.39,3.1,1.79.09.14.36.11.6.11s.4-.18.65-.22c.33.12.58.32.92.43h.6c.3-.08.48-.28.87-.27-.05.26-.12.49-.16.76a10.48,10.48,0,0,1-1.63,1.3c-.57.36-.42,1.65-.76,2.23-.18.31-.65.54-.76.87,0,.18-.12.44,0,.6s.11.54-.05.54c-.17.46,0,.84-.22,1.19s-1.12.65-1.57,1.25c-.26.34-.17.62-.54.71a6.8,6.8,0,0,1-.81.81c-.08,0-.09.09-.16.11a3.1,3.1,0,0,1-.54.54,4.89,4.89,0,0,0-1.14,1.74v.65a.47.47,0,0,1,.05.33c-.15.37-.59.46-.65.92v.54c.16.89.25,1.85.92,2.23-.4.52-1.2.65-1.68,1.09-.06.39.16.49.22.76-.2.34-.67.42-.87.76-.16,1.55.84,1.94.82,3.37a1.12,1.12,0,0,1,0,.76v1.36a1.26,1.26,0,0,1,.22,1.25.76.76,0,0,0,.38.43,2.38,2.38,0,0,1-.22.27,4.41,4.41,0,0,1-.65.65c-.21.31-.53.52-.6,1v.71a4.4,4.4,0,0,1,0,2.61v.71a1.9,1.9,0,0,0,1.52,1,1.2,1.2,0,0,1,.87-.38c.12.07,0,.38.05.54.19.95,1.21,1.07,2,1.47,0,.1-.12.14-.11.27v.6a3.13,3.13,0,0,0,1,.54h.65a.56.56,0,0,0-.05.54h.05c.11.22.64,0,.82.16.88.16.75-.67.65-1.09.45.2.46.73.71,1.09a3,3,0,0,0,2,1c.1.08.14.22.33.22s.36-.26.6-.33c.28.42,1,.42,1,1.14a2.67,2.67,0,0,0,1.47.33,7,7,0,0,0,.71.56,2.25,2.25,0,0,0,.62.88l0,0c0,.74.53,1.63,1.19,1.2.07-.46-.23-.57-.27-.92.59.39,1.16.78,1.9,1.19s1.2,1.14,1.85,1.25c.2,0,.42-.14.6-.11s.36.38.6.43.41,0,.54,0c.36.12.6.71,1,.76.25,0,.52-.19.76-.16s.37.29.6.33c.43.08.64-.08,1.09-.11h.54c.49.33,1.37-.21,1.63.22a.7.7,0,0,0,.6,0,1.38,1.38,0,0,1,.76-.27,1.1,1.1,0,0,0,.76,0c.12,0,.33-.11.43,0s.54,0,.65-.06a16.77,16.77,0,0,0,2.44-1c.5-.37.89-1.21,1.41-1.57.25-.17.52-.18.65-.38s.14-.82.43-1.09a3.13,3.13,0,0,0,.54-.54c.51-.56,1.44-.7,1.47-1.74,0-.27.07-.69-.06-.87a.47.47,0,0,1-.05-.33A6.19,6.19,0,0,0,70.41,59c0-.59-.29-.95-.22-1.52s.6-1,.16-1.47v-.08l0-.14a1.34,1.34,0,0,0,.63-.26H71a4.49,4.49,0,0,0,3-2.66c-.49-.05-.59.27-1,.33-.11-.27.38-.41.11-.49-.56,0-1.15.6-1.63.16,0-.26,0-.54.16-.6a1.13,1.13,0,0,0,.6-.11c.15-.12.12-.42.27-.54a.85.85,0,0,0,1.09.27c.09,0-.11-.33.11-.33a1.37,1.37,0,0,0,.92.11c.22-.17.37-.43.76-.43.4-.45-.4-.61.07-1.16a9.08,9.08,0,0,0,1.25-1.52c.12-.49-.18-.94,0-1.41s.57-.43.76-.87a6,6,0,0,0-.17-2.18m-5.48-9.31a3.69,3.69,0,0,1,.88-.29M67.37,10.42c-.45.31-.69.83-1.19,1.09a1.41,1.41,0,0,0-.16-.27,2.32,2.32,0,0,0,.76-1.68c-.23-.24-.56-.38-.43-1,.31-.23.76-.32,1.09-.54.83.56-.48,1.36-.05,2.39M45.49,37.62c0,.1-.07.11-.05.22-.27.05-.32-.11-.49-.16a1.19,1.19,0,0,1,.54-.87c.2.1.13.7,0,.81m-2.23-2.33a2.6,2.6,0,0,1,.65,2.17c-.13,0-.26,0-.27.11a1.14,1.14,0,0,1,0-.81c-.17-.47-.63-.9-.38-1.47m4.29,9.28a.74.74,0,0,1,.43-.11c.07.15.33.33.16.54H48.1a.47.47,0,0,1-.43.27c0-.24-.35-.45-.11-.71m4.53,7.13s.26.22.08.18l.17.24a3.18,3.18,0,0,0-.55-.37c.19,0,.18,0,.33.11A1.46,1.46,0,0,0,51,51.51c.48,0,.82,0,1.06.18m19.68-7-.07-.11.07.11m-2.3-18Zm7.18,6.48h0l.11-.07h0l-.11.07M38.16,53c-.45-.06-.68-.34-1.09-.43,0-.22.16-.31.16-.54a1.79,1.79,0,0,1,1.52,0c.16.06.42,0,.54.11h.22c-.08.45-1,.57-1.36.87m8.69-1.2c-.13,0-.17-.08-.27-.11-.26,0-.37.06-.6.05-.77.54-2.14.47-2.77,1.14.17.46.18.8-.27,1,.56-1.12-.53-1.47-.7-2.33.23-.26.16-.45.38-.71.43-.51,1.39-.58,1.52-1.09.21-.81-.66-1.3-1.19-1.68,1-.88.13-1.43-.92-1.68-.57-.14-1.17-.19-1.79-.38-.95-.29-2.26-.44-2.39-1.47-.12-.13,0-.49-.05-.7a3.5,3.5,0,0,0,.05-.76.84.84,0,0,0-.71-.16c-.35.08-.83.39-1.08.22,0-.35.17-.51.27-.76.35.18.77.28,1.14.43.1,0,.14.12.27.11s.16-.09.33-.05a4.32,4.32,0,0,0,.82,1.41c1.19.18,1.22-.81,1.79-1.25.46.13.62.57.76,1,.49.2,1.15.23,1.68.38.08.21.08.5.16.71,1.56.43,2-1.18,2.06-2.61V41.2a10.08,10.08,0,0,0-.71-1c.41-.24.23-.82,0-1.14.23,0,.24-.16.49-.11.44.4.33,1,.27,1.68a1.65,1.65,0,0,1,.22,1.85c0,.35-.07.79.16.92.77.18.56-1.14,1-1.19s.35.4.49.76c-1.23-.43-1.76,1.85-1.19,2.71a4.46,4.46,0,0,1,.65.65,19.16,19.16,0,0,1,1.74,2.88,3.53,3.53,0,0,0,.87.87c.21.07.34.2.54.27,0,.12.23,0,.33.05s.1.19.16.27v.05a2.26,2.26,0,0,0,.49.6v.05s0,.1.11.11-.07,0-.16,0c-.57-.21-.85.41-1.19.76s-.56.72-.92.76-.7-.35-1.46-.33a2.41,2.41,0,0,1-.38-.81" transform="translate(-0.55 -0.21)"/><g class="cls-5"><path class="cls-4" d="M28.39,49.83c-.24-.14-.41-.36-.76-.38a1.1,1.1,0,0,0-.76,0c-.35-.12-.51-.43-.87-.54a1.61,1.61,0,0,0-.92,0,8.8,8.8,0,0,1-1,.27c-.42,0-.53-.13-.87-.22-.55-.15-1.23-.12-1.74-.27A7.55,7.55,0,0,0,19.71,48c-.15-.13-.52,0-.76-.05-.85.16-1.57-.68-2.06-.65s-.79.73-1.3,1c-.57-.62-.61-1.51-1.3-2a7.8,7.8,0,0,0-1.36-.49c-.45-.17-.86-.48-1.25-.65-1.15-.49-2.8-.08-4.45-.22-1.5.32-2.47.94-2.5,2.61a3.5,3.5,0,0,0,1.46,3,17.58,17.58,0,0,0,1.9,1.63c.81.51,2.21.52,3,.87a1.43,1.43,0,0,0,.87,0,2,2,0,0,1,1.9-.27,2.22,2.22,0,0,0,1.09,0,4.51,4.51,0,0,1,.6-.22,3,3,0,0,0,1.19.65c.19.15.73,0,.92.11a3.6,3.6,0,0,1,.58,0l.6.11a11.73,11.73,0,0,0,2.4.81,2.44,2.44,0,0,0,1.14,0A15.87,15.87,0,0,1,24,53.52a.62.62,0,0,1,.43-.6c.44.07.46.63.81.81s.71,0,1,.27a8.87,8.87,0,0,1,1.25-.81h.87c.07.13.35.05.33.27.17.2.89.12,1.14.05,1,0,1.07-1.11.49-1.68-.89-.44-1.76-.92-2-2" transform="translate(-0.55 -0.21)"/><path class="cls-4" d="M6.4,34.68c.86.71,2.52.62,3.58,1.14h.65c.13,0,.2-.08.38-.05.63,1.27,2.47,1.32,3.8,1.9.27,0,.69-.07.87.05a6.72,6.72,0,0,0,2.33.82c.2,0,.56-.09.6.11.59,0,.68.51,1.19.6a1.36,1.36,0,0,0,.6-.82c.05-.35-.21-.75-.27-1.19s.13-.87-.05-1.09S19.29,36,19,36.1a2.25,2.25,0,0,0-.49-1,4.18,4.18,0,0,0-.65-.87c-.42-.33-1.27-.24-1.52-.65a2.62,2.62,0,0,1-.6-.65c-.45-.42-.85-1-1.57-1-1.42,0-1.52,2.25-2.82,2.5v-.11c0-.2-.07-.54.06-.65.11-.85.69-1.22.87-2a.63.63,0,0,0,0-.54c-.41-1-1.6-1.26-2.5-1.79A20.25,20.25,0,0,0,5.86,26.7c-1.49-.59-4.1-.06-4.89.81-1,1.09,0,3,.38,3.91.16.33.27.73.43,1a7.3,7.3,0,0,0,2.5,2.06c.49.27,1.54,0,2.12.16" transform="translate(-0.55 -0.21)"/></g><path class="cls-4" d="M26.71,37.45c-.18-.42-.37-.83-.92-.87-.23-.16-.8,0-1-.11s-.62-.36-1-.16-.29.67-.54,1.14c-.33.62-1.1,1-1.14,1.63,0,.27.27.61.27.92s-.2.42-.16.6c.12.65,1,.76,1.79.87a5.23,5.23,0,0,0,1.68,0c.37-.06.46-.4.81-.49a6.5,6.5,0,0,0,1.41.81c.06.18.38.09.54.16s.47.07.54-.05a1,1,0,0,0,.6-.33.62.62,0,0,0,0-.54c-.12-.07,0-.38-.06-.54-.28-.64-.54-1.53-1.19-1.57s-.68.64-1.41.65c-.19-.11-.23-.51-.16-.71a3.72,3.72,0,0,0,0-1.41" transform="translate(-0.55 -0.21)"/><path class="cls-4" d="M34.63,31.1c.22-.29.51-.46.6-.65.54-1.26-1.35-2-1.63-2.77a2.8,2.8,0,0,1-.49-.6c-.4-.63-1.31-.59-2.06-.87s-1.13-.89-1.79-.92a2.92,2.92,0,0,0-1.25,0c-.27.1-.44.29-.7.38s-.39-.05-.49-.22c-.3-1.38-1.61-1.75-2.55-2.5-.34-.2-.78,0-1-.22-.89-.32-1-1.47-2.28-1.36-.5-.28-.66-.86-1.25-.92s-1.17.6-1.85.65c-.2,1.39-1.93,1.48-1.57,3.26-.11,0-.16.17-.33.16a.63.63,0,0,0-.16.54c.31.6,1.33.48,2,.76a3.56,3.56,0,0,0,1.09,1c1.77-.16,1.32,1.89,3,1.79.4-.19,1,.11,1.41-.05,1.07-.11,1.22-1.13,1.52-2a6.57,6.57,0,0,0,1.25-.87,3.3,3.3,0,0,1-.6,1.58c-.28.39-.76.55-.65,1a.44.44,0,0,0,.49.27c.27-.11.41-.35.6-.54A4,4,0,0,1,27,27.08c.38.61-.35.82-.71,1.19a2.69,2.69,0,0,0-.71,2,.83.83,0,0,0,.33.6,3.41,3.41,0,0,0,2,1c.6.16,1.11.86,1.68,1a5.77,5.77,0,0,1,.65.05c.47.16.76.72,1.19.71h.76a1.54,1.54,0,0,0,1.25-1.19c.58-.23.79-.77,1.14-1.25" transform="translate(-0.55 -0.21)"/><path class="cls-4" d="M5.54,19a5.89,5.89,0,0,0,2,2.23,7.65,7.65,0,0,0,4.07,2c.2.15.76-.08.87.16.36.76,2.18,1.17,2.82.38,0-.68.14-1.27.6-1.52.29-.15-.1-.7.16-.81.29-.31.64-.46.65-1,0-.36-.28-.66-.49-1.08a9.51,9.51,0,0,0-1.09-1.85,16.28,16.28,0,0,0-1-1.3c-.91-.9-3.06-1.35-4.18-1.85a4.8,4.8,0,0,0-2,.05A2.65,2.65,0,0,0,5.86,16c-.14.17-.28.33-.43.49a4.87,4.87,0,0,0-.27,1.9,3.39,3.39,0,0,0,.38.71" transform="translate(-0.55 -0.21)"/><path class="cls-2" d="M30.4,4.39c-.4-.53-1-.57-1.63-.92a15,15,0,0,1-1.25-1c-.37-.28-.87-.85-1.2-1a1.5,1.5,0,0,0-2.12.49c-.53,1.28.59,2.35,1.19,2.93a5.11,5.11,0,0,0,3.1,1.63,1.86,1.86,0,0,0,1.9-2.12" transform="translate(-0.55 -0.21)"/><path class="cls-2" d="M36.1,11.39c-.35-.44-.34-.93-.6-1.19-.53-.53-1.69-.48-2.44-.87s-.68-1-1.36-.92a1.38,1.38,0,0,0-.87.49c-.59.88,0,1.66.49,2.28a14.54,14.54,0,0,0,2.12,2.39,2.75,2.75,0,0,0,.49.33,5.46,5.46,0,0,0,2.93-.6c.25-.15.71-.62.65-.92-.09-.48-1-.45-1.41-1" transform="translate(-0.55 -0.21)"/><path class="cls-2" d="M41.26,16.93c-.42-.82-.52-2-1.68-1.85-.68.07-1.68,1.87-1.79,2.55a3.07,3.07,0,0,0,.38,2c.5.53,1.62.61,2.23,1.14.33.29.3.63.7,1a2.09,2.09,0,0,0,1.68-2c.21-1.7-1.14-2.08-1.52-2.82" transform="translate(-0.55 -0.21)"/><path class="cls-2" d="M7.82,20.19a9.15,9.15,0,0,0,1.57.76,18.16,18.16,0,0,1,2.28.16c.65.22.89,1.2,1.68,1.14s1.48-1.31,1.41-2.33-.49-1.29-1.25-1.74c-.36-.21-.64-.48-.87-.6a9.8,9.8,0,0,0-4.18-1A2.27,2.27,0,0,0,7.33,17a2,2,0,0,0-.65,1.36,3.59,3.59,0,0,0,1.14,1.79" transform="translate(-0.55 -0.21)"/><path class="cls-2" d="M37.13,18.45c.32-.22.36-1.12.16-1.52-.93-.43-1.2,1.68-.16,1.52" transform="translate(-0.55 -0.21)"/><path class="cls-2" d="M19.32,26.05c.61.21,1,.22,1.57.43,1,1.3,1.86-1.5,2.23-2.06v-.05c-.36-.34-.57-1-1-1.3S20.82,23,20,22.69c-.24-.08-.38-.37-.71-.38-.54,0-.91.56-1.25.92s-.9.83-.87,1.25,1.47,1.33,2.17,1.57" transform="translate(-0.55 -0.21)"/><path class="cls-2" d="M24.43,24.75a3.41,3.41,0,0,0-2,2.12c1.19.83,2.88-1.32,2-2.12" transform="translate(-0.55 -0.21)"/><path class="cls-2" d="M32.08,29.2c.14-.2.46-.23.49-.54-.23-.22-.22-.85-.43-1-.76-.62-2.32-1.51-3.26-.92H28.5c-.91.55-.78,2.93-.33,3.91.82-.16.94.59,1.68.33a.67.67,0,0,0,.11.49c.34.28.55,0,.92.16s.56.61,1,.6a1,1,0,0,0,.76-.54c.05-.13,0-.3.05-.43.13-.32.51-.67.49-1s-.35-.63-.49-.87a2.13,2.13,0,0,1-.6-.11m-2.61-1.36a.2.2,0,0,1-.16-.27c.22-.06.27.17.16.27" transform="translate(-0.55 -0.21)"/><path class="cls-2" d="M6.73,33.22c.93.1,1.65.61,2.12.54a2.44,2.44,0,0,0,1.52-2.17c-.1-1.06-1.34-1.3-2.23-1.68-.51-.22-1-.67-1.47-.92-.31-.16-.65-.22-.92-.38a4.75,4.75,0,0,0-2.28-.82c-2.13.09-1.67,2.77-.76,3.75a10.14,10.14,0,0,0,1.3.87,4.87,4.87,0,0,0,1.41.76c.39.09.78,0,1.3.05M3.91,28.71c0-.21.35-.33.33-.05a.47.47,0,0,1-.33.05" transform="translate(-0.55 -0.21)"/><path class="cls-2" d="M15.42,33.87a1.76,1.76,0,0,0-.92-.11c-.64.09-2.29.67-2.23,1.36,0,.54,2.08.77,2.61.71s1.29-.61,1.3-1-.51-.86-.76-1" transform="translate(-0.55 -0.21)"/><path class="cls-2" d="M16.66,36.86a2.25,2.25,0,0,1,1.52-.05c.71-.42-.77-1.73-1.09-1.74-.49,0-.57.44-.87.82.13.34.13.81.44,1" transform="translate(-0.55 -0.21)"/><path class="cls-2" d="M28.5,41c.27-.92-1.09-1-1-.27a.63.63,0,0,0,1,.27" transform="translate(-0.55 -0.21)"/><path class="cls-2" d="M13.24,47.39c-.32-.07-.68,0-1-.11-.55-.19-.87-.63-1.47-.76a10.94,10.94,0,0,0-2.06.05,5.59,5.59,0,0,0-1-.16c-1.16.11-2.35.83-1.63,2,1.38.57,1.87,2.89,3.53,3,.67.06,1.08-.41,1.74-.05.67-.49,1.32,0,2-.11.91-.18.88-1.05,1.2-1.9.11-.29.4-.58.38-.87,0-.52-.92-1-1.74-1.14M9.5,50.76a.25.25,0,0,0,.05-.16c.11,0,.14,0,.22.05s-.16.22-.27.11m3.69-.22c-.12-.11,0-.18.05-.27s.14.32-.05.27" transform="translate(-0.55 -0.21)"/><path class="cls-2" d="M18.84,50.16c-.25-.26-.21-.62-.38-.87a1.76,1.76,0,0,0-.87-.65c-.79-.16-.59.58-.71,1.25s-.51,1.19-.65,1.74a3.4,3.4,0,0,0,1.79.65c.34,0,.56-.46.87-.49a3.44,3.44,0,0,1,1.19.33,4.17,4.17,0,0,0,1.09.49,3,3,0,0,0,1.25-2.88c-1.3-.88-2.51,1.55-3.58.43" transform="translate(-0.55 -0.21)"/><path class="cls-2" d="M26.6,51.24c.07.69,1.23.92,1.79,1.14.65-.58-.39-1.23-.6-1.79-.69-.26-1.25.1-1.19.65" transform="translate(-0.55 -0.21)"/><path class="cls-2" d="M26.28,52.05v.22a.6.6,0,0,0,0-.22" transform="translate(-0.55 -0.21)"/><path class="cls-2" d="M71.86,42.87c-.08-.35-.25,0-.44-.26l0-.36-.27.23c-.51.06-1.64.39-2.74.49l-.24,0,0,.23s0-.13,0-.1a1.21,1.21,0,0,0,.52.81l.22.2,0,.19s0,.06,0,.09a.86.86,0,0,1,0,.27v0l0,.35,0,0a.73.73,0,0,0,0,.24c0,.06-.4.12-.4.19a1.86,1.86,0,0,1,0,.19,2.46,2.46,0,0,1-.81,1.54l-.08-.07-.16.15a.63.63,0,0,0-.3-.09.46.46,0,0,0-.19,0l-.21.09,0,.23a.68.68,0,0,1,0,.11.51.51,0,0,1,0,.16l-.23.14.09.1-.18.15H66.2l-.05,0a2.32,2.32,0,0,1-.74.22h0v.13a3.73,3.73,0,0,1-1,.15h-.13l-.08.09s-.16,0-.33,0h0a.93.93,0,0,0-.5.33l-.56-.06-.43,0a.55.55,0,0,0-.07-.13c-.25-.31-.34-.22-.45-.63a2.68,2.68,0,0,0-1.12-1.51.49.49,0,0,1-.11-.18.83.83,0,0,0-.1-.17.42.42,0,0,0-.31-.16h0a.48.48,0,0,0-.33.14,4.77,4.77,0,0,0-.41.58l0,0a.89.89,0,0,0,0-.25.79.79,0,0,0,0-.11v-.27h0a4.71,4.71,0,0,0-.48-1.56,5.81,5.81,0,0,1-.52-1.47,15.05,15.05,0,0,1,.07-3.13,8.91,8.91,0,0,1,.09-1.3l0-.12-.07-.1a1.46,1.46,0,0,0-.15-.16h0V38.5h0a.59.59,0,0,0,0-.12V38.3l0-.06c-.16-.33-.34-.49-.41-.68h0v-.14l.05,0,.08.07h.25a.74.74,0,0,0,.64-.42c.11-.19.19-.38.29-.53.85-1.25,1.25-2.24,2.67-2.64a.51.51,0,0,0,.28-.12.84.84,0,0,0,.16-.2h.06a.8.8,0,0,1,.42.13,1.86,1.86,0,0,0,.6.25h.09c.13,0,.18,0,.39.14h0c.13,0,.26.16.53.27l.56.21,0-.11a3.05,3.05,0,0,1,.87.86c.06.1.13.28.25.45a7.11,7.11,0,0,1,.5,1.87l0,.28.31.14c1.35-.13,3.94-.55,3.95-.55h0a.36.36,0,0,0,.24-.12,6.08,6.08,0,0,0,.48-1.11l2.93.52.68-.1,2.25-.42-.05-.47c-.06-.65-.39-.9-.66-1.68l.12,0,.26-.07-.05-.27c0-.13-.07-.34-.12-.6l.79-.47-.9,0c-.18-.86-.41-1.93-.48-2.3v0l0,0a.34.34,0,0,0-.3-.18.75.75,0,0,0-.34.11c-.22.12-.51.31-.77.48l-.41-.59a11.13,11.13,0,0,0-2.42-2.41l0,0-2.38-1.31h0a.44.44,0,0,0-.21-.31V26l-.18-.08a12.93,12.93,0,0,0-3.72-1.16h-.19a.43.43,0,0,0-.21,0H64l-.2,0a.49.49,0,0,0-.2,0l0,0h-.06c-.26,0-.35.08-.42.07H63l-.1,0-.09.05a17.09,17.09,0,0,0-2.07,1.59h0l0,0a1.12,1.12,0,0,1-.41.1h-.18a.8.8,0,0,0-.59.36,2.37,2.37,0,0,0-.25.74.88.88,0,0,1-.08.22s0,0-.06,0l-.13,0c-.15,0-.28-.09-.41-.34a2.41,2.41,0,0,1-.21-.93v-.06l0-.06a.79.79,0,0,0-.53-.38,1.11,1.11,0,0,1-.31-.1L57.37,26,57.2,26a8.71,8.71,0,0,0-1,.43,9.23,9.23,0,0,0-2.59,1.38,3.91,3.91,0,0,0-.78.6,1.75,1.75,0,0,0-.51.38h-.15l-.08.18s0,.06-.14.12a1.1,1.1,0,0,0-.28.25l-.08.07h0l0,0a.76.76,0,0,0-.36.57.46.46,0,0,0,0,.14,17.25,17.25,0,0,0-3.28,5.6l0,.52.72-.09.29.15.24.13.08,0,.06.08s0,0,0,0a.17.17,0,0,1,0,0v.1l0,.09a6.73,6.73,0,0,0,.4,1.07.19.19,0,0,1,0,.14c0,.09,0,.24,0,.42h0v.07l-.08.12s-.14.09-.35.24a.48.48,0,0,0-.21.16l0,0a1.38,1.38,0,0,0-.59,1.26,3.37,3.37,0,0,0,.06.63l0,.24h.31a.48.48,0,0,1,.16.16.7.7,0,0,1,.11.35c0,.1,0,.11,0,.13L49,42v.17c0,.26.07.39.06.51a.68.68,0,0,1,0,.09v.1l0,.09a.71.71,0,0,1,.1.36,2.08,2.08,0,0,1-.26.8,2.64,2.64,0,0,0-.31,1.11v.09h0s0,.12,0,.23a.52.52,0,0,0,0,.2.39.39,0,0,0,.16.19,6.77,6.77,0,0,0,.5,1.26,3.61,3.61,0,0,1,.41,1.54v.12l.09.09a5.5,5.5,0,0,1,.36.45.58.58,0,0,0,.14.25h0v.14l.13.1,0,0v0a1,1,0,0,1-.28.28l-.51.36.44.12v.08l.12.09a2.43,2.43,0,0,1,.37.46v.33l.21-.06.05.06.09.07h.4a1.29,1.29,0,0,1,.5.06l.1.16A12.33,12.33,0,0,0,55,54.79,13,13,0,0,0,60,57a8.59,8.59,0,0,0,1.27.12A1.6,1.6,0,0,0,62,57h0l.33.29,0,0,0,0a1.72,1.72,0,0,0,.75.14,7,7,0,0,0,1.06-.12h.07c.67-.29,1.67-.21,2.48-.48.18-.07.2-.09.26-.09H67l.07,0,2.17-.85h0l.46,0H70l.52.62v-.6c.23-.05.37-.15.49-.18h.09l.06,0a5.81,5.81,0,0,0,2.74-2.57L74,53l-.14-.16a.4.4,0,0,0-.3-.13.55.55,0,0,0-.32.12.38.38,0,0,0-.1-.17l-.17-.16-.2.13a2.07,2.07,0,0,1-.94.31.35.35,0,0,1-.23-.06s-.07-.07-.07-.23,0,0,0-.07a2.6,2.6,0,0,1,.54-.27,1.68,1.68,0,0,0,.55-.36.52.52,0,0,0,.24.13l.18,0a.83.83,0,0,0,.52-.2,1.07,1.07,0,0,1,.23-.16l.17,0h.27a1.23,1.23,0,0,0,.3,0,5.26,5.26,0,0,0,3-2.84,15,15,0,0,0,1.1-3h0a12.08,12.08,0,0,0,0-3.81v-.78L73.92,42l-.05.34s-.08.18-.19.39a2,2,0,0,1-.36.52Z" transform="translate(-0.55 -0.21)"/><path class="cls-4" d="M57.45,46.48c0-.28-.29-.41-.49-.71s-.18-.5-.33-.6-.4,0-.76-.11c-.6-.16-.83-.61-1.25-.49-1,.27.18,1.35.22,1.68.09.78-.62,1.55-.05,2.39.19.28.49.23.65.38.43.39.44,1,1,1,1.42.17.32-1.63.49-2.5.07-.35.59-.5.54-1.09" transform="translate(-0.55 -0.21)"/><path class="cls-4" d="M73.68,32.48c-.26,0-.37-.1-.65-.05-.28.21-.76.67-.49,1.08" transform="translate(-0.55 -0.21)"/><path class="cls-4" d="M66.76,33.71s-1.09.4-1.09-.35-.8-1.44-.3-1.39.6-.45,1.09.1,1,.79.89,1.14a1.08,1.08,0,0,1-.59.5" transform="translate(-0.55 -0.21)"/><path class="cls-4" d="M67.71,34.46s-.76.26-.25.69,1.06,1,1.06.55.51-.9.12-1-.71-.51-.92-.26" transform="translate(-0.55 -0.21)"/><path class="cls-2" d="M23.84,40.22A1.69,1.69,0,0,1,25,38c.78,0,.83,1.59.19,2a3.37,3.37,0,0,1-1.4.24" transform="translate(-0.55 -0.21)"/></g></g></svg>